<svg width="97" height="33" viewBox="0 0 97 33" fill="none" xmlns="http://www.w3.org/2000/svg">
<g clip-path="url(#clip0_419_2721)">
<path d="M30.2786 32.011V19.1988H26.653V15.4414H37.9704V19.1997H34.3447V32.0119H30.2795L30.2786 32.011Z" fill="#130C03"/>
<path d="M0.570068 23.7937C0.570068 18.651 4.5036 15.1348 9.47013 15.1348C12.4588 15.1348 15.1618 16.343 16.8977 18.9366L13.3156 20.8042C12.3484 19.4856 11.0957 18.7827 9.51372 18.7827C6.72261 18.7827 4.76695 20.9581 4.76695 23.8151C4.76695 26.672 6.89876 28.8039 9.38205 28.8039C11.4258 28.8039 12.8983 27.5733 13.1616 25.9469V25.9247H9.68988V22.8043H17.7109V23.5072C17.7109 28.9133 14.4802 32.2978 9.33845 32.2978C4.48134 32.2978 0.570068 28.8039 0.570068 23.7937Z" fill="#130C03"/>
<path d="M20.4993 32.011V15.4414H24.5645V32.011H20.4993Z" fill="#130C03"/>
<path d="M73.8016 32.011V15.4414H77.8668V32.011H73.8016Z" fill="#130C03"/>
<path d="M92.9958 15.4414H96.9734V32.011H93.6771L85.3705 21.5726L85.4365 32.011H81.437V15.4414H84.8217L93.1284 25.814L92.9966 15.4414H92.9958Z" fill="#130C03"/>
<path d="M47.82 28.5397C45.293 28.5397 43.1611 26.5618 43.1611 23.7271C43.1611 21.0463 45.205 18.9145 47.8647 18.9145C49.1743 18.9145 50.3176 19.4101 51.1492 20.2304C51.5507 18.9492 52.1752 17.7507 53.0054 16.6795C51.5515 15.7088 49.7828 15.1562 47.8857 15.1562C43.0075 15.1562 38.9635 18.8042 38.9635 23.7048C38.9635 28.8476 43.0285 32.2971 47.82 32.2971C49.7327 32.2971 51.5149 31.7614 52.9768 30.8094C52.1566 29.7391 51.538 28.5335 51.1425 27.2362C50.2979 28.053 49.1376 28.5397 47.82 28.5397Z" fill="#130C03"/>
<path d="M62.3918 15.1562C59.3303 15.1562 56.5979 16.5932 54.9866 18.8744C54.0309 20.2287 53.4695 21.88 53.4695 23.7048C53.4695 25.5297 54.0292 27.286 54.9777 28.6385C56.5857 30.9313 59.3126 32.2971 62.3262 32.2971C67.2267 32.2971 71.2708 28.7808 71.2708 23.7484C71.2708 18.7161 67.249 15.1562 62.3918 15.1562ZM62.3262 28.5397C59.7991 28.5397 57.6676 26.5618 57.6676 23.7271C57.6676 21.0463 59.7111 18.9145 62.3708 18.9145C65.0299 18.9145 67.0739 21.0241 67.0739 23.7494C67.0739 26.4746 65.0299 28.5397 62.327 28.5397H62.3262Z" fill="#130C03"/>
<path d="M3.80941 3.97706C4.28728 3.97706 4.7326 4.09654 5.1453 4.33547C5.56524 4.57441 5.90195 4.91473 6.15537 5.35639C6.40879 5.79808 6.5355 6.30854 6.5355 6.88777C6.5355 7.46703 6.40879 7.98111 6.15537 8.43005C5.90195 8.8717 5.56886 9.21202 5.15616 9.45097C4.74346 9.68991 4.30176 9.80938 3.83114 9.80938C3.48359 9.80938 3.17586 9.74781 2.90796 9.62472C2.6473 9.49439 2.45542 9.35321 2.33233 9.20116V11.7317H0.551147V4.12912H2.00651L2.24545 4.67217C2.39026 4.49837 2.58938 4.33909 2.8428 4.19428C3.10346 4.04947 3.42566 3.97706 3.80941 3.97706ZM3.52703 5.58447C3.19397 5.58447 2.91158 5.70756 2.67988 5.95375C2.44819 6.19993 2.33233 6.51126 2.33233 6.88777C2.33233 7.27152 2.44456 7.5865 2.66902 7.83269C2.90072 8.07887 3.18672 8.20196 3.52703 8.20196C3.86734 8.20196 4.15696 8.07887 4.3959 7.83269C4.63484 7.57926 4.75432 7.26428 4.75432 6.88777C4.75432 6.51126 4.63484 6.19993 4.3959 5.95375C4.15696 5.70756 3.86734 5.58447 3.52703 5.58447ZM9.7705 9.80938C9.25642 9.80938 8.77491 9.68991 8.32602 9.45097C7.88432 9.21202 7.52957 8.8717 7.26167 8.43005C6.99373 7.98835 6.85978 7.47789 6.85978 6.89862C6.85978 6.3194 6.99373 5.80894 7.26167 5.36724C7.52957 4.91835 7.88432 4.57441 8.32602 4.33547C8.77491 4.09654 9.25642 3.97706 9.7705 3.97706C10.2846 3.97706 10.7625 4.09654 11.2042 4.33547C11.6531 4.57441 12.0115 4.91835 12.2794 5.36724C12.5473 5.80894 12.6812 6.3194 12.6812 6.89862C12.6812 7.47789 12.5473 7.98835 12.2794 8.43005C12.0115 8.8717 11.6531 9.21202 11.2042 9.45097C10.7625 9.68991 10.2846 9.80938 9.7705 9.80938ZM9.7705 8.14763C10.0819 8.14763 10.3461 8.03178 10.5634 7.80011C10.7878 7.56841 10.9 7.2679 10.9 6.89862C10.9 6.52939 10.7878 6.22888 10.5634 5.99718C10.3461 5.75823 10.0819 5.63876 9.7705 5.63876C9.45194 5.63876 9.18404 5.75461 8.96681 5.98632C8.74958 6.21802 8.64097 6.52211 8.64097 6.89862C8.64097 7.2679 8.74958 7.56841 8.96681 7.80011C9.18404 8.03178 9.45194 8.14763 9.7705 8.14763ZM21.2632 4.12912L19.5363 9.6573H17.7334L16.9297 6.51849L16.1043 9.6573H14.3014L12.5745 4.12912H14.3448L15.2354 7.6046L16.1586 4.12912H17.7008L18.6023 7.58288L19.4929 4.12912H21.2632ZM22.7081 7.43084C22.7443 7.67702 22.8711 7.89421 23.0882 8.08249C23.3127 8.27072 23.5842 8.36486 23.9028 8.36486C24.1924 8.36486 24.4205 8.29972 24.5871 8.16939C24.7536 8.03906 24.8694 7.90145 24.9346 7.75664L26.4008 8.18024C26.2126 8.69432 25.9121 9.09617 25.4994 9.38578C25.0867 9.66815 24.5509 9.80938 23.892 9.80938C23.3924 9.80938 22.9253 9.68991 22.4909 9.45097C22.0565 9.21202 21.7053 8.8717 21.4374 8.43005C21.1767 7.98835 21.0464 7.47789 21.0464 6.89862C21.0464 6.32664 21.1731 5.8198 21.4265 5.3781C21.68 4.93645 22.0239 4.59251 22.4583 4.34632C22.8928 4.10015 23.3707 3.97706 23.892 3.97706C24.435 3.97706 24.902 4.10377 25.293 4.35718C25.6913 4.60336 25.9953 4.9473 26.2053 5.389C26.4153 5.82342 26.5203 6.3194 26.5203 6.87691V7.43084H22.7081ZM24.9889 6.31216C24.9961 6.2325 24.9636 6.11665 24.8912 5.9646C24.826 5.81256 24.7101 5.67499 24.5436 5.5519C24.3843 5.42881 24.1671 5.36724 23.892 5.36724C23.5589 5.36724 23.291 5.45776 23.0882 5.63876C22.8928 5.8198 22.7697 6.04427 22.719 6.31216H24.9889ZM27.0683 4.12912H28.5236L28.7734 4.69388C28.8893 4.49837 29.0558 4.33185 29.273 4.19428C29.4902 4.04947 29.7509 3.97706 30.055 3.97706C30.4025 3.97706 30.7031 4.05671 30.9565 4.216L30.3483 5.8017C30.1962 5.69309 30.0079 5.63876 29.7835 5.63876C29.5011 5.63876 29.273 5.72928 29.0993 5.91032C28.9327 6.09131 28.8495 6.36645 28.8495 6.73572V9.6573H27.0683V4.12912ZM32.3446 7.43084C32.3808 7.67702 32.5075 7.89421 32.7247 8.08249C32.9492 8.27072 33.2207 8.36486 33.5393 8.36486C33.8289 8.36486 34.057 8.29972 34.2235 8.16939C34.3901 8.03906 34.5059 7.90145 34.5711 7.75664L36.0373 8.18024C35.8491 8.69432 35.5486 9.09617 35.1359 9.38578C34.7232 9.66815 34.1874 9.80938 33.5285 9.80938C33.0289 9.80938 32.5618 9.68991 32.1274 9.45097C31.693 9.21202 31.3418 8.8717 31.0739 8.43005C30.8132 7.98835 30.6829 7.47789 30.6829 6.89862C30.6829 6.32664 30.8096 5.8198 31.063 5.3781C31.3165 4.93645 31.6604 4.59251 32.0948 4.34632C32.5293 4.10015 33.0071 3.97706 33.5285 3.97706C34.0715 3.97706 34.5385 4.10377 34.9295 4.35718C35.3277 4.60336 35.6318 4.9473 35.8418 5.389C36.0518 5.82342 36.1568 6.3194 36.1568 6.87691V7.43084H32.3446ZM34.6254 6.31216C34.6326 6.2325 34.6001 6.11665 34.5276 5.9646C34.4625 5.81256 34.3466 5.67499 34.1801 5.5519C34.0208 5.42881 33.8036 5.36724 33.5285 5.36724C33.1954 5.36724 32.9275 5.45776 32.7247 5.63876C32.5293 5.8198 32.4062 6.04427 32.3555 6.31216H34.6254ZM39.2136 9.80938C38.7358 9.80938 38.2868 9.68991 37.8669 9.45097C37.4542 9.21202 37.1211 8.8717 36.8677 8.43005C36.6143 7.98835 36.4875 7.47789 36.4875 6.89862C36.4875 6.3194 36.6143 5.80894 36.8677 5.36724C37.1211 4.91835 37.4542 4.57441 37.8669 4.33547C38.2796 4.09654 38.7213 3.97706 39.1919 3.97706C39.5394 3.97706 39.8436 4.04223 40.1042 4.17256C40.3721 4.29566 40.5676 4.43322 40.6907 4.58527V2.05469H42.472V9.6573H41.0165L40.7776 9.11426C40.6328 9.28802 40.43 9.44735 40.1694 9.59215C39.916 9.73696 39.5974 9.80938 39.2136 9.80938ZM39.496 8.20196C39.8291 8.20196 40.1115 8.07887 40.3432 7.83269C40.5748 7.5865 40.6907 7.27514 40.6907 6.89862C40.6907 6.51487 40.5748 6.19993 40.3432 5.95375C40.1187 5.70756 39.8363 5.58447 39.496 5.58447C39.1557 5.58447 38.8661 5.71118 38.6271 5.9646C38.3882 6.21079 38.2687 6.52211 38.2687 6.89862C38.2687 7.27514 38.3882 7.5865 38.6271 7.83269C38.8661 8.07887 39.1557 8.20196 39.496 8.20196ZM49.2069 9.80938C48.8235 9.80938 48.5011 9.73696 48.2407 9.59215C47.9869 9.44735 47.7879 9.28802 47.6431 9.11426L47.4041 9.6573H45.9489V2.05469H47.7302V4.58527C47.8531 4.43322 48.045 4.29566 48.3055 4.17256C48.5735 4.04223 48.8812 3.97706 49.2288 3.97706C49.6992 3.97706 50.1411 4.09654 50.5539 4.33547C50.9663 4.57441 51.2996 4.91835 51.553 5.36724C51.8063 5.80894 51.933 6.3194 51.933 6.89862C51.933 7.47789 51.8063 7.98835 51.553 8.43005C51.2996 8.8717 50.963 9.21202 50.543 9.45097C50.1302 9.68991 49.6849 9.80938 49.2069 9.80938ZM48.9245 8.20196C49.2649 8.20196 49.5545 8.07887 49.7935 7.83269C50.0325 7.5865 50.152 7.27514 50.152 6.89862C50.152 6.52211 50.0325 6.21079 49.7935 5.9646C49.5545 5.71118 49.2649 5.58447 48.9245 5.58447C48.5845 5.58447 48.2983 5.70756 48.0669 5.95375C47.8421 6.19993 47.7302 6.51487 47.7302 6.89862C47.7302 7.27514 47.8459 7.5865 48.0774 7.83269C48.3093 8.07887 48.5916 8.20196 48.9245 8.20196ZM57.7858 4.12912V9.32064C57.7639 10.175 57.4887 10.8158 56.9601 11.243C56.4387 11.6774 55.7692 11.8947 54.9511 11.8947C54.2702 11.8947 53.7202 11.7281 53.3002 11.395C52.8874 11.0692 52.6122 10.6456 52.4746 10.1243L54.1145 9.80938C54.1436 9.98314 54.2269 10.1243 54.3645 10.2329C54.5093 10.3416 54.7049 10.3958 54.9511 10.3958C55.255 10.3958 55.5049 10.3017 55.7002 10.1135C55.903 9.92519 56.0044 9.63558 56.0044 9.24459V8.89703L55.9935 8.87532C55.8273 9.07083 55.6316 9.2265 55.4073 9.34235C55.1897 9.4582 54.9074 9.51611 54.5602 9.51611C53.8578 9.51611 53.3398 9.30616 53.0069 8.88618C52.6736 8.459 52.5074 7.80011 52.5074 6.90952V4.12912H54.2883V6.74658C54.2883 7.13757 54.3607 7.41998 54.5055 7.59374C54.6507 7.7675 54.8606 7.8544 55.1354 7.8544C55.7149 7.8544 56.0044 7.49236 56.0044 6.76829V4.12912H57.7858Z" fill="black"/>
</g>
<defs>
<clipPath id="clip0_419_2721">
<rect width="97" height="32.3193" fill="white"/>
</clipPath>
</defs>
</svg>
